<svg id="visual" viewBox="0 0 2500 150" width="2500" height="150" xmlns="http://www.w3.org/2000/svg" xmlns:xlink="http://www.w3.org/1999/xlink" version="1.1"><rect x="0" y="0" width="2500" height="150" fill="#fff"></rect><path d="M0 61L24.5 65.3C49 69.7 98 78.3 147 82.2C196 86 245 85 294 86.3C343 87.7 392 91.3 441 89.5C490 87.7 539 80.3 588 80.3C637 80.3 686 87.7 735 84C784 80.3 833 65.7 882 67C931 68.3 980 85.7 1029 84.5C1078 83.3 1127 63.7 1176.2 57C1225.3 50.3 1274.7 56.7 1323.8 68.8C1373 81 1422 99 1471 107.5C1520 116 1569 115 1618 104.3C1667 93.7 1716 73.3 1765 63C1814 52.7 1863 52.3 1912 56C1961 59.7 2010 67.3 2059 69.7C2108 72 2157 69 2206 71.8C2255 74.7 2304 83.3 2353 84.7C2402 86 2451 80 2475.5 77L2500 74L2500 151L2475.5 151C2451 151 2402 151 2353 151C2304 151 2255 151 2206 151C2157 151 2108 151 2059 151C2010 151 1961 151 1912 151C1863 151 1814 151 1765 151C1716 151 1667 151 1618 151C1569 151 1520 151 1471 151C1422 151 1373 151 1323.8 151C1274.7 151 1225.3 151 1176.2 151C1127 151 1078 151 1029 151C980 151 931 151 882 151C833 151 784 151 735 151C686 151 637 151 588 151C539 151 490 151 441 151C392 151 343 151 294 151C245 151 196 151 147 151C98 151 49 151 24.5 151L0 151Z" fill="#f9f9f9" stroke-linecap="round" stroke-linejoin="miter"></path></svg>