<svg id="visual" viewBox="0 0 2500 150" width="2500" height="150" xmlns="http://www.w3.org/2000/svg" xmlns:xlink="http://www.w3.org/1999/xlink" version="1.1"><rect x="0" y="0" width="2500" height="150" fill="#f9f9f9"></rect><path d="M0 64L16.7 65.2C33.3 66.3 66.7 68.7 100 70.2C133.3 71.7 166.7 72.3 200 73.7C233.3 75 266.7 77 300 80.2C333.3 83.3 366.7 87.7 400 88C433.3 88.3 466.7 84.7 500 78.3C533.3 72 566.7 63 600 68C633.3 73 666.7 92 700 99.7C733.3 107.3 766.7 103.7 800 95.2C833.3 86.7 866.7 73.3 900 67C933.3 60.7 966.7 61.3 1000 69.3C1033.3 77.3 1066.7 92.7 1100 90.7C1133.3 88.7 1166.7 69.3 1200 67.2C1233.3 65 1266.7 80 1300 82.8C1333.3 85.7 1366.7 76.3 1400 78.3C1433.3 80.3 1466.7 93.7 1500 98.7C1533.3 103.7 1566.7 100.3 1600 97.3C1633.3 94.3 1666.7 91.7 1700 93C1733.3 94.3 1766.7 99.7 1800 102.2C1833.3 104.7 1866.7 104.3 1900 105.7C1933.3 107 1966.7 110 2000 108.3C2033.3 106.7 2066.7 100.3 2100 99.5C2133.3 98.7 2166.7 103.3 2200 98.2C2233.3 93 2266.7 78 2300 68.7C2333.3 59.3 2366.7 55.7 2400 53.7C2433.3 51.7 2466.7 51.3 2483.3 51.2L2500 51L2500 151L2483.3 151C2466.7 151 2433.3 151 2400 151C2366.7 151 2333.3 151 2300 151C2266.7 151 2233.3 151 2200 151C2166.7 151 2133.3 151 2100 151C2066.7 151 2033.3 151 2000 151C1966.7 151 1933.3 151 1900 151C1866.7 151 1833.3 151 1800 151C1766.7 151 1733.3 151 1700 151C1666.7 151 1633.3 151 1600 151C1566.7 151 1533.3 151 1500 151C1466.7 151 1433.3 151 1400 151C1366.7 151 1333.3 151 1300 151C1266.7 151 1233.3 151 1200 151C1166.7 151 1133.3 151 1100 151C1066.7 151 1033.3 151 1000 151C966.7 151 933.3 151 900 151C866.7 151 833.3 151 800 151C766.7 151 733.3 151 700 151C666.7 151 633.3 151 600 151C566.7 151 533.3 151 500 151C466.7 151 433.3 151 400 151C366.7 151 333.3 151 300 151C266.7 151 233.3 151 200 151C166.7 151 133.3 151 100 151C66.7 151 33.3 151 16.7 151L0 151Z" fill="#fff" stroke-linecap="round" stroke-linejoin="miter"></path></svg>